<svg width="30" height="31" viewBox="0 0 30 31" fill="none" xmlns="http://www.w3.org/2000/svg">
<path fill-rule="evenodd" clip-rule="evenodd" d="M9 0.5C6.61305 0.5 4.32387 1.44821 2.63604 3.13604C0.948212 4.82387 0 7.11305 0 9.5L0 21.5C0 23.8869 0.948212 26.1761 2.63604 27.864C4.32387 29.5518 6.61305 30.5 9 30.5H21C23.3869 30.5 25.6761 29.5518 27.364 27.864C29.0518 26.1761 30 23.8869 30 21.5V9.5C30 7.11305 29.0518 4.82387 27.364 3.13604C25.6761 1.44821 23.3869 0.5 21 0.5L9 0.5ZM8 15.5C8 13.6435 8.7375 11.863 10.0503 10.5503C11.363 9.2375 13.1435 8.5 15 8.5C16.8565 8.5 18.637 9.2375 19.9497 10.5503C21.2625 11.863 22 13.6435 22 15.5C22 17.3565 21.2625 19.137 19.9497 20.4497C18.637 21.7625 16.8565 22.5 15 22.5C13.1435 22.5 11.363 21.7625 10.0503 20.4497C8.7375 19.137 8 17.3565 8 15.5ZM22 8.5H24V6.5H22V8.5Z" fill="#F7F7F7"/>
</svg>
